# xmcd
#
# Track frame offsets: 
#        150
#        9235
#        19352
#        32365
#        41632
#        54155
#        66207
#        77265
#        88867
#        99225
#        109627
#        121892
#        132625
#        143472
#        154085
#        164292
#        175000
#        186755
#        197630
#        209670
#        221005
#        231772
#        244837
#        255662
#        277122
#
# Disc length: 3832 seconds
#
# Revision: 5
# Processed by: cddbd v1.5.2PL0 Copyright (c) Steve Scherf et al.
# Submitted via: ExactAudioCopyFreeDBPlugin 1.0
#
DISCID=510ef619
DTITLE=Various Artist - The Vee-Jay Story:  40 Years of Classic Hits,
DTITLE=1953-1993 [box set]
DYEAR=1993
DGENRE=Rhythm and Blues
TTITLE0=Eddie Harris - Exodus
TTITLE1=Sheriff and The Ravels - Shombalor
TTITLE2=Dee Clark - Raindrops
TTITLE3=Gladys Night and The Pips - Every Beat of My Heart
TTITLE4=Jimmy Reed - Bright Lights, Big City
TTITLE5=Jerry Butler - Moon River
TTITLE6=Gene Chandler - Duke of Earl
TTITLE7=John Lee Hooker - Boom Boom
TTITLE8=The Pearlettes - Duchess of Earl
TTITLE9=The Shephards - Tragic
TTITLE10=Jerry Butler - Make it Easy on Yourself
TTITLE11=Jimmy Reed - Oh John
TTITLE12=Gene Chandler - Rainbow
TTITLE13=Betty Everett - You're No Good
TTITLE14=Betty Everett - The Shoop Shoop Song (It's in His Kiss)
TTITLE15=The Rubies - A Spanish Boy
TTITLE16=Betty Everett - I Can't Hear You
TTITLE17=Joe Simon - My Adorable One
TTITLE18=Jerry Butler and Betty Everett - Let it Be Me
TTITLE19=Little Richard - Whole Lotta Shakin' Goin' On
TTITLE20=Little Richard - It Ain't What You Do
TTITLE21=The Dells - Stay in My Corner
TTITLE22=Fred Hughes - Oo Wee Baby I Love You
TTITLE23=Little Richard - I Don't Know What You Got
TTITLE24=The Dells - It's Not Unusual
EXTD=
EXTT0=
EXTT1=
EXTT2=
EXTT3=
EXTT4=
EXTT5=
EXTT6=
EXTT7=
EXTT8=
EXTT9=
EXTT10=
EXTT11=
EXTT12=
EXTT13=
EXTT14=
EXTT15=
EXTT16=
EXTT17=
EXTT18=
EXTT19=
EXTT20=
EXTT21=
EXTT22=
EXTT23=
EXTT24=
PLAYORDER=
